<svg xmlns="http://www.w3.org/2000/svg" viewBox="0 0 275.5 275.9"><defs><linearGradient id="a" x1="3.2" x2="272.4" y1="119.2" y2="119.2" gradientTransform="matrix(1 0 0 -1 0 257.7)" gradientUnits="userSpaceOnUse"><stop offset=".2" stop-color="#2886ff"/><stop offset=".5" stop-color="#8b8cbe"/><stop offset=".7" stop-color="#ff9472"/></linearGradient></defs><path d="M208.8 273.2h-142c-35.1 0-63.6-28.5-63.6-63.6v-142C3.2 32.5 31.7 4 66.8 4h142c35.1 0 63.6 28.5 63.6 63.6v142c-.1 35.1-28.5 63.6-63.6 63.6Z" style="fill:url(#a)"/><path d="M225.7 177.4s-4.6-3-4.6-6.9V102c0-2.8 2.7-4.6 4-6 1-.7 1.9-1.5 2.8-2.4 2.5-2.5 4.2-5.5 5.3-8.6.1-.4.3-.8.4-1.2 0-.1.1-.2.1-.3 1.8-6.2 1.2-13.5-3.1-20.7-1.3-2.2-3.2-4.1-5.4-5.4-16.3-9.8-33.1-.9-36.8 13.4v.2c-.8 2.9-1 5.9-.6 8.8s1.2 4.3-1.2 7.8l-43.7 48.3c-2.9 3.2-8 3.2-11 0L88.8 88.2c-2-1.7-1.5-8.2-1.5-8.2.3-2.9.1-5.9-.6-8.8V71c-3.8-14.2-20.5-23.2-36.8-13.4-2.2 1.3-4 3.2-5.4 5.4-4.3 7.2-5 14.5-3.1 20.7 0 .1.1.2.1.3.1.4.3.8.4 1.2 1.1 3.1 2.9 6.1 5.3 8.6.9.9 1.8 1.7 2.8 2.4 1.3 1.4 4 3 4 6v68.5c0 4.3-4.6 6.9-4.6 6.9-8.6 6.9-12.3 19.8-4.7 32.4 1.3 2.2 3.2 4.1 5.4 5.4 18.5 11 37.5-2 37.5-19.5s-3.5-14.1-8.9-18.5-4.7-3-4.7-6.9v-68.4s0-.3.1-.3c.1-.1.3.2.4.3l53.4 59c5.7 5.7 11.2 6.3 16.8 2.3s4.9-4.7 5.3-5.1l50.6-56.4s.4-.3.6 0v68.5c0 4.2-4.7 6.9-4.7 6.9-8.7 6.9-12.4 19.8-4.8 32.5 1.3 2.2 3.2 4.1 5.4 5.4 18.5 11 37.5-2 37.5-19.5 0-7.3-3.6-14-8.9-18.3Z" style="fill:#fff"/></svg>
