<?xml version="1.0" encoding="UTF-8"?>
<svg id="Layer_1" xmlns="http://www.w3.org/2000/svg" xmlns:xlink="http://www.w3.org/1999/xlink" xmlns:svg="http://www.w3.org/2000/svg" xmlns:sodipodi="http://sodipodi.sourceforge.net/DTD/sodipodi-0.dtd" xmlns:ns="http://ns.adobe.com/SaveForWeb/1.0/" xmlns:inkscape="http://www.inkscape.org/namespaces/inkscape" version="1.1" viewBox="0 0 999.5 201.9">
  <!-- Generator: Adobe Illustrator 29.1.0, SVG Export Plug-In . SVG Version: 2.1.0 Build 142)  -->
  <defs>
    <linearGradient id="linear-gradient" x1="13.5" y1="635.6" x2="199.7" y2="635.6" gradientTransform="translate(0 -534.3)" gradientUnits="userSpaceOnUse">
      <stop offset=".2" stop-color="#2886ff"/>
      <stop offset=".5" stop-color="#8b8cbe"/>
      <stop offset=".7" stop-color="#ff9472"/>
    </linearGradient>
  </defs>
  <sodipodi:namedview id="namedview10" bordercolor="#000000" borderopacity="0.25" inkscape:current-layer="Layer_1" inkscape:cx="456.90356" inkscape:cy="159.14618" inkscape:deskcolor="#d1d1d1" inkscape:pagecheckerboard="0" inkscape:pageopacity="0.0" inkscape:showpageshadow="2" inkscape:window-height="551" inkscape:window-maximized="0" inkscape:window-width="1104" inkscape:window-x="0" inkscape:window-y="37" inkscape:zoom="0.38957893" pagecolor="#ffffff"/>
  <path d="M155.7,194.4H57.5c-24.3,0-44-19.7-44-44V52.2c0-24.3,19.7-44,44-44h98.2c24.3,0,44,19.7,44,44v98.2c0,24.3-19.7,44-44,44h0Z" fill="url(#linear-gradient)"/>
  <path d="M167.4,128.1s-3.2-2.1-3.2-4.8v-47.4c0-1.9,1.9-3.2,2.8-4.1.7-.5,1.3-1,1.9-1.7,1.7-1.7,2.9-3.8,3.7-5.9,0-.3.2-.6.3-.8,0,0,0-.1,0-.2,1.2-4.3.8-9.3-2.1-14.3-.9-1.5-2.2-2.8-3.7-3.7-11.3-6.8-22.9-.6-25.4,9.3h0c-.6,2.1-.7,4.2-.4,6.2s.8,3-.8,5.4l-30.2,33.4c-2,2.2-5.5,2.2-7.6,0l-29.8-33c-1.4-1.2-1-5.7-1-5.7.2-2,0-4.1-.4-6.1h0c-2.6-10-14.2-16.2-25.4-9.4-1.5.9-2.8,2.2-3.7,3.7-3,5-3.5,10-2.1,14.3,0,0,0,.1,0,.2,0,.3.2.6.3.8.8,2.1,2,4.2,3.7,5.9.6.6,1.2,1.2,1.9,1.7.9,1,2.8,2.1,2.8,4.1v47.4c0,3-3.2,4.8-3.2,4.8-5.9,4.8-8.5,13.7-3.3,22.4.9,1.5,2.2,2.8,3.7,3.7,12.8,7.6,25.9-1.4,25.9-13.5s-2.4-9.8-6.2-12.8c-3.7-3-3.3-2.1-3.3-4.8v-47.3s0-.2,0-.2c0,0,.2.1.3.2l36.9,40.8c3.9,3.9,7.7,4.4,11.6,1.6,3.9-2.8,3.4-3.3,3.7-3.5l35-39s.3-.2.4,0v47.4c0,2.9-3.3,4.8-3.3,4.8-6,4.8-8.6,13.7-3.3,22.5.9,1.5,2.2,2.8,3.7,3.7,12.8,7.6,25.9-1.4,25.9-13.5s-2.5-9.7-6.2-12.7h0Z" fill="#fff"/>
  <g>
    <path d="M291.8,43.8l31.8,77.6h1.3l31.8-77.6c1.3-3.3,3.5-4.7,7-4.7h14c3.9,0,6.1,2.2,6.1,6.1v101.4c0,3.9-2.2,6.1-6.1,6.1h-7.5c-3.9,0-6.1-2.2-6.1-6.1v-71.9h-1.1l-29.5,72.9c-1.3,3.2-3.5,4.8-7,4.8h-4.5c-3.5,0-5.8-1.6-7-4.8l-29.5-73.1h-1.1v72.1c0,3.9-2.2,6.1-6.1,6.1h-7.5c-3.9,0-6.1-2.2-6.1-6.1V45.1c0-3.9,2.2-6.1,6.1-6.1h14c3.5,0,5.7,1.4,7,4.7Z"/>
    <path d="M401.6,110.5c0-26.3,15.9-44.2,40.3-44.2s38.9,13.1,38.9,43h0c0,4-2.2,6.2-6.1,6.2h-53.2c.2,14.6,8.8,23.1,21.7,23.1s12.1-2.2,15.5-6.5c2.2-2.8,4.2-4.3,7.6-3.9l6.8.8c4.3.5,6.5,2.8,5.1,6-5.2,11.8-17.9,19.3-35.3,19.3-25.7,0-41.4-17-41.4-43.8ZM461.6,102c-.1-11.6-7.9-20-19.4-20s-20,9.2-20.6,20h40Z"/>
    <path d="M503.9,67.4h7c3.9,0,6.1,2.2,6.1,6.1v8.4h1c3.5-9.7,12.1-15.6,23.5-15.6s19.7,5.9,23,15.6h.9c3.8-9.5,13.2-15.6,25.6-15.6s26.6,10.1,26.6,29.1v51.1c0,3.9-2.2,6.1-6.1,6.1h-7.9c-3.9,0-6.1-2.2-6.1-6.1v-48c0-10.5-6.4-15.3-14.5-15.3s-15.4,6.7-15.4,16.3v47c0,3.9-2.2,6.1-6.1,6.1h-7.5c-3.9,0-6.1-2.2-6.1-6.1v-48.8c0-8.8-5.8-14.5-14.3-14.5s-15.6,7.1-15.6,17.6v45.7c0,3.9-2.2,6.1-6.1,6.1h-7.9c-3.9,0-6.1-2.2-6.1-6.1v-73c0-3.9,2.2-6.1,6.1-6.1Z"/>
    <path d="M645,39h7.9c3.9,0,6.1,2.2,6.1,6.1v36.4h.8c3.1-6.2,9.3-15.2,24.4-15.2s35.2,15.4,35.2,43.8-15,44-35.1,44-21.2-8.7-24.4-14.9h-1.2v7.3c0,3.9-2.2,6.1-6.1,6.1h-7.5c-3.9,0-6.1-2.2-6.1-6.1V45.1c0-3.9,2.2-6.1,6.1-6.1ZM678.6,137.7c13.3,0,20.2-11.6,20.2-27.6s-6.9-27.2-20.2-27.2-20,10.7-20,27.2,7.2,27.6,20,27.6Z"/>
    <path d="M742.6,67.4h7.3c3.9,0,6.1,2.2,6.1,6.1v8.1h.9c3.1-9.9,11.3-15.4,21-15.4h1.4c3.8.2,5.8,2.6,5.8,6.4v6.1c0,4.2-1.7,6-4.6,5.7-1.6-.2-3.2-.3-4.7-.3-11,0-19.2,7.7-19.2,18.5v44c0,3.9-2.2,6.1-6.1,6.1h-7.9c-3.9,0-6.1-2.2-6.1-6.1v-73c0-3.9,2.2-6.1,6.1-6.1Z"/>
    <path d="M796.9,44.5c0-6,5.2-10.9,11.6-10.9s11.6,4.9,11.6,10.9-5.2,10.9-11.6,10.9-11.6-4.9-11.6-10.9ZM798.4,73.5c0-3.9,2.2-6.1,6.1-6.1h7.9c3.9,0,6.1,2.2,6.1,6.1v73c0,3.9-2.2,6.1-6.1,6.1h-7.9c-3.9,0-6.1-2.2-6.1-6.1v-73Z"/>
    <path d="M835.1,128.7c0-19.2,15.8-24.1,32.3-25.9,15-1.6,21.1-1.9,21.1-7.7v-.3c0-8.4-5.1-13.1-14.4-13.1s-12.1,2.7-15,6.3c-2.2,2.8-4.1,4.3-7.6,3.8l-6.7-.9c-4.3-.6-6.3-3.5-4.3-7.4,6-11.3,18.2-17.1,33.5-17.1s34.6,6.8,34.6,29.3v50.9c0,3.9-2.2,6.1-6.1,6.1h-7.1c-3.9,0-6.1-2.1-6.1-5.9v-5.8h-.7c-3.7,7.2-11.6,13.4-25,13.4s-28.5-8.9-28.5-25.6ZM868.9,139.6c12.1,0,19.7-8,19.7-17.5v-10c-2.6,2.1-13.1,3.4-18.4,4.2-9,1.3-15.7,4.5-15.7,12.2s6,11.2,14.4,11.2Z"/>
  </g>
  <metadata id="metadata10">
    <ns:sfw>
      <ns:slices/>
      <ns:sliceSourceBounds x="3.2" y="2.7" width="1271.11" height="269.2" bottomLeftOrigin="true"/>
    </ns:sfw>
    <sfw xmlns="http://ns.adobe.com/SaveForWeb/1.0/">
      <slices/>
      <sliceSourceBounds x="13.49" y="7.53" width="895.13" height="186.17" bottomLeftOrigin="true"/>
    </sfw>
  </metadata>
</svg>
